Coordinates
version=1
nRows=14
nColumns=63
inDegrees=yes

Units are S.I. units (second, meters, Newtons, ...)
If the header above contains a line with 'inDegrees', this indicates whether rotational values are in degrees (yes) or radians (no).

endheader
time	pelvis_tilt	pelvis_list	pelvis_rotation	pelvis_tx	pelvis_ty	pelvis_tz	hip_flexion_r	hip_adduction_r	hip_rotation_r	knee_angle_r	knee_angle_r_beta	ankle_angle_r	subtalar_angle_r	mtp_angle_r	hip_flexion_l	hip_adduction_l	hip_rotation_l	knee_angle_l	knee_angle_l_beta	ankle_angle_l	subtalar_angle_l	mtp_angle_l	L5_S1_Flex_Ext	L5_S1_Lat_Bending	L5_S1_axial_rotation	L4_L5_Flex_Ext	L4_L5_Lat_Bending	L4_L5_axial_rotation	L3_L4_Flex_Ext	L3_L4_Lat_Bending	L3_L4_axial_rotation	L2_L3_Flex_Ext	L2_L3_Lat_Bending	L2_L3_axial_rotation	L1_L2_Flex_Ext	L1_L2_Lat_Bending	L1_L2_axial_rotation	L1_T12_Flex_Ext	L1_T12_Lat_Bending	L1_T12_axial_rotation	Abs_r3	Abs_r2	Abs_r1	Abs_t1	Abs_t2	neck_flexion	neck_bending	neck_rotation	arm_flex_r	arm_add_r	arm_rot_r	elbow_flex_r	pro_sup_r	wrist_flex_r	wrist_dev_r	arm_flex_l	arm_add_l	arm_rot_l	elbow_flex_l	pro_sup_l	wrist_flex_l	wrist_dev_l
3.745763	-2.636724	-8.835299	88.564657	0.284523	0.996001	0.435553	-5.391201	-2.681781	13.010385	1.349633	0.023556	30.901597	-15.356251	0.000000	-3.337304	2.159635	13.157697	0.660050	0.011520	31.849044	-13.837897	0.000000	0.217668	-0.139943	0.366898	0.404231	-0.186124	0.389829	0.357607	-0.340257	0.389829	0.248773	-0.340257	0.321035	0.202127	-0.285371	0.298104	0.124376	-0.216771	0.275173	1.554782	-1.583060	2.040575	0.000000	0.000000	26.656716	-3.634314	-10.401751	12.410182	-6.226695	136.956685	17.542961	6.629590	-1.673548	-11.893067	10.766930	-9.603453	93.847989	22.404157	83.999389	-10.033171	2.060708
3.762712	-2.693877	-8.780519	88.604139	0.284122	0.996163	0.435478	-5.501013	-2.746658	12.710354	1.302582	0.022734	30.743906	-15.273792	0.000000	-3.381673	2.244172	13.183916	0.641672	0.011199	31.786434	-13.907875	0.000000	0.221972	-0.151030	0.315322	0.412224	-0.200871	0.335030	0.364677	-0.367215	0.335030	0.253692	-0.367215	0.275907	0.206123	-0.307981	0.256199	0.126835	-0.233946	0.236492	1.585522	-1.708487	1.753727	0.000000	0.000000	26.881459	-3.576299	-10.113778	12.258665	-6.073437	137.316430	17.531600	6.674564	-2.207304	-12.299072	10.668087	-9.561621	94.537503	22.212974	83.708888	-10.218868	1.825951
3.779661	-2.765161	-8.738966	88.588005	0.283767	0.996256	0.435530	-5.590005	-2.827366	12.326903	1.273405	0.022225	30.555350	-15.053365	0.000000	-3.400517	2.346361	13.202331	0.625572	0.010918	31.746715	-14.028471	0.000000	0.226527	-0.162147	0.265230	0.420684	-0.215655	0.281806	0.372162	-0.394243	0.281806	0.258898	-0.394243	0.232076	0.210353	-0.330649	0.215499	0.129438	-0.251165	0.198922	1.618062	-1.834235	1.475127	0.000000	0.000000	27.077509	-3.499481	-9.659686	12.111897	-5.971347	137.405178	17.590801	6.661384	-2.687355	-12.585072	10.581448	-9.555025	95.061304	22.102276	83.517059	-10.352454	1.702934
3.796610	-2.838980	-8.701217	88.464925	0.283504	0.996320	0.435722	-5.655969	-2.918535	11.973138	1.263647	0.022055	30.334841	-14.758481	0.000000	-3.406613	2.458006	13.093548	0.610523	0.010656	31.759974	-14.097287	0.000000	0.228528	-0.172188	0.234366	0.424398	-0.229010	0.249014	0.375448	-0.418658	0.249014	0.261184	-0.418658	0.205070	0.212211	-0.351126	0.190422	0.130581	-0.266719	0.175774	1.632349	-1.947826	1.303472	0.000000	0.000000	27.248716	-3.432838	-9.117895	11.998452	-5.904364	137.421493	17.707593	6.542257	-3.133615	-12.774002	10.586142	-9.508351	95.824554	21.977166	83.417961	-10.434529	1.637597
3.813559	-2.912674	-8.684882	88.322996	0.283252	0.996347	0.436045	-5.693744	-3.007737	11.555027	1.260740	0.022004	30.110209	-14.375212	0.000000	-3.378771	2.567830	13.003110	0.595794	0.010399	31.807005	-14.173578	0.000000	0.230370	-0.180982	0.201174	0.427820	-0.240706	0.213747	0.378475	-0.440039	0.213747	0.263290	-0.440039	0.176027	0.213922	-0.369058	0.163454	0.131634	-0.280341	0.150881	1.645511	-2.047302	1.118870	0.000000	0.000000	27.396516	-3.320104	-8.425088	11.917244	-5.868493	137.259539	17.865929	6.341238	-3.469788	-12.851718	10.588240	-9.525476	96.148621	21.959649	83.468380	-10.434039	1.713675
3.830508	-2.980244	-8.669876	88.078938	0.283076	0.996387	0.436516	-5.706954	-3.101674	11.245476	1.267251	0.022118	29.884027	-13.985662	0.000000	-3.341817	2.678723	12.742298	0.583281	0.010180	31.915982	-14.116096	0.000000	0.228837	-0.188059	0.189840	0.424974	-0.250119	0.201705	0.375957	-0.457247	0.201705	0.261538	-0.457247	0.166110	0.212498	-0.383490	0.154245	0.130758	-0.291303	0.142380	1.634563	-2.127361	1.055833	0.000000	0.000000	27.512823	-3.232593	-7.748211	11.909554	-5.855693	137.140986	18.079773	6.039988	-3.738433	-12.862107	10.667857	-9.466111	96.764325	21.856909	83.520592	-10.386242	1.767646
3.847458	-3.033579	-8.658434	87.787548	0.282945	0.996431	0.437099	-5.703868	-3.185098	11.032558	1.276073	0.022272	29.655621	-13.654355	0.000000	-3.298791	2.775333	12.520654	0.570394	0.009955	32.036085	-14.103438	0.000000	0.225457	-0.192608	0.190734	0.418696	-0.256168	0.202655	0.370403	-0.468306	0.202655	0.257675	-0.468306	0.166893	0.209359	-0.392766	0.154972	0.128826	-0.298349	0.143051	1.610415	-2.178817	1.060807	0.000000	0.000000	27.604678	-3.104202	-7.005485	11.963417	-5.862111	136.976504	18.333787	5.661637	-3.919485	-12.762405	10.796319	-9.362931	97.488695	21.728150	83.544100	-10.270358	1.835162
3.864407	-3.072862	-8.636905	87.419164	0.282880	0.996497	0.437802	-5.689364	-3.264161	10.936439	1.290145	0.022517	29.442576	-13.358995	0.000000	-3.265446	2.863990	12.250939	0.558740	0.009752	32.163829	-14.092473	0.000000	0.218164	-0.195282	0.213112	0.405152	-0.259724	0.226432	0.358421	-0.474808	0.226432	0.249339	-0.474808	0.186473	0.202587	-0.398218	0.173154	0.124659	-0.302491	0.159834	1.558323	-2.209064	1.185266	0.000000	0.000000	27.665544	-3.004973	-6.342727	12.095225	-5.884109	136.831150	18.633153	5.229369	-4.049214	-12.599980	10.971999	-9.187617	98.349522	21.535480	83.596325	-10.099065	1.879619
3.881356	-3.093365	-8.605178	86.985802	0.282871	0.996575	0.438613	-5.663709	-3.333163	10.969016	1.310914	0.022880	29.251492	-13.118054	0.000000	-3.244645	2.938446	11.969965	0.549420	0.009589	32.272904	-14.131470	0.000000	0.207554	-0.195838	0.257599	0.385449	-0.260465	0.273699	0.340991	-0.476161	0.273699	0.237214	-0.476161	0.225399	0.192735	-0.399353	0.209299	0.118596	-0.303353	0.193199	1.482538	-2.215360	1.432688	0.000000	0.000000	27.694534	-2.973473	-5.815482	12.289850	-5.937038	136.578946	18.977716	4.844553	-4.174178	-12.370731	11.209806	-8.943120	99.397304	21.307495	83.683851	-9.913087	1.891830
3.898305	-3.090184	-8.564576	86.489615	0.282912	0.996669	0.439525	-5.623283	-3.386976	11.110224	1.343565	0.023450	29.085641	-12.906516	0.000000	-3.237894	2.995006	11.609324	0.541956	0.009459	32.354606	-14.174853	0.000000	0.193962	-0.193698	0.323128	0.360208	-0.257619	0.343323	0.318661	-0.470958	0.343323	0.221680	-0.470958	0.282737	0.180113	-0.394990	0.262541	0.110830	-0.300039	0.242346	1.385454	-2.191155	1.797139	0.000000	0.000000	27.693777	-2.985566	-5.401698	12.544356	-5.997933	136.367695	19.330394	4.393879	-4.293181	-12.091895	11.506005	-8.617476	100.654358	21.031952	83.811048	-9.692878	1.868542
3.915254	-3.061620	-8.514143	85.925863	0.282987	0.996801	0.440537	-5.566704	-3.425481	11.362425	1.388293	0.024230	28.937822	-12.714765	0.000000	-3.248321	3.032612	11.169209	0.534184	0.009323	32.386522	-14.248195	0.000000	0.176585	-0.188566	0.412271	0.327936	-0.250793	0.438038	0.290112	-0.458479	0.438038	0.201819	-0.458479	0.360737	0.163977	-0.384524	0.334970	0.100901	-0.292089	0.309203	1.261330	-2.133095	2.292928	0.000000	0.000000	27.677086	-3.094602	-5.144261	12.850612	-6.078764	136.163078	19.673073	4.071142	-4.490038	-11.800103	11.889599	-8.145989	102.462885	20.603346	83.859848	-9.581229	1.623434
3.932203	-3.008882	-8.469731	85.331319	0.283069	0.996957	0.441616	-5.481024	-3.443364	11.691953	1.447791	0.025269	28.813616	-12.535196	0.000000	-3.255721	3.046076	10.656956	0.530651	0.009262	32.408187	-14.274110	0.000000	0.158210	-0.180619	0.516421	0.293811	-0.240223	0.548698	0.259923	-0.439157	0.548698	0.180818	-0.439157	0.451869	0.146914	-0.368318	0.419592	0.090401	-0.279779	0.387316	1.130077	-2.043198	2.872181	0.000000	0.000000	27.651190	-3.254754	-4.997264	13.223752	-6.134382	136.272146	19.984147	3.807731	-4.794532	-11.516691	12.387129	-7.589568	104.666219	20.114632	83.950828	-9.609249	1.231877
3.949153	-2.944621	-8.437516	84.713787	0.283176	0.997145	0.442743	-5.361557	-3.450931	12.115367	1.515507	0.026451	28.716572	-12.384948	0.000000	-3.252427	3.045060	10.103854	0.527688	0.009210	32.402341	-14.290271	0.000000	0.139749	-0.171460	0.632936	0.259527	-0.228041	0.672494	0.229593	-0.416887	0.672494	0.159719	-0.416887	0.553819	0.129771	-0.349640	0.514260	0.079852	-0.265591	0.474702	0.998210	-1.939584	3.520200	0.000000	0.000000	27.629153	-3.458666	-4.942050	13.646725	-6.144320	136.694638	20.231514	3.662438	-5.186604	-11.214429	12.994179	-7.007022	107.043899	19.647148	84.149854	-9.701175	0.742037
3.966102	-2.877310	-8.419577	84.094966	0.283303	0.997361	0.443880	-5.211550	-3.453953	12.623731	1.586059	0.027682	28.650766	-12.280670	0.000000	-3.234186	3.035370	9.524721	0.524184	0.009149	32.390121	-14.262900	0.000000	0.122175	-0.161771	0.754814	0.226890	-0.215155	0.801990	0.200721	-0.393330	0.801990	0.139633	-0.393330	0.660462	0.113451	-0.329883	0.613286	0.069811	-0.250583	0.566110	0.872681	-1.829984	4.198047	0.000000	0.000000	27.617805	-3.667058	-4.916481	14.156963	-6.142916	136.817487	20.521886	4.278286	-5.758070	-10.829782	13.676666	-6.458868	109.322664	19.278600	84.505023	-9.743733	0.211099
